# xmcd
#
# Track frame offsets:
#	150
#	17265
#	33375
#	52342
#	67300
#	81040
#	97775
#	112717
#	124577
#	144727
#	160325
#	187010
#
# Disc length: 2542 seconds
#
# Revision: 6
# Processed by: cddbd v1.5.2PL0 Copyright (c) Steve Scherf et al.
# Submitted via: EZCDAudioConverter 7.0.7.1
#
DISCID=9c09ec0c
DTITLE=Aaron Tippin - Stars and Stripes
DYEAR=2002
DGENRE=Country
TTITLE0=Where The Stars And Stripes And The Eagle Fly
TTITLE1=I'll Take Love Over Money
TTITLE2=I Believed
TTITLE3=Honky Tonk If You Love Country
TTITLE4=If Her Lovin' Don't Kill Me
TTITLE5=Love Like There's No Tomorrow
TTITLE6=At The End Of The Day
TTITLE7=We Can't Get Any Higher Than This
TTITLE8=Five Gallon Tear
TTITLE9=This Old Couch
TTITLE10=Love Me Back
TTITLE11=DATA
EXTD=
EXTT0=
EXTT1=
EXTT2=
EXTT3=
EXTT4=
EXTT5=
EXTT6=
EXTT7=
EXTT8=
EXTT9=
EXTT10=
EXTT11=
PLAYORDER=
